<svg xmlns="http://www.w3.org/2000/svg" xmlns:xlink="http://www.w3.org/1999/xlink" width="16" height="16" fill="#4DB6AC" version="1.1" viewBox="0 0 24 24"><g transform="scale(1.5)"><rect width="1" height="12" x="1" y="2"/><rect width="2" height="1" x="2" y="2"/><rect width="2" height="1" x="2" y="13"/><rect width="1" height="12" x="14" y="2"/><rect width="3" height="1" x="12" y="2"/><rect width="2" height="1" x="12" y="13"/></g><path fill="#4DB6AC" d="M4,17V9H2V7H6V17H4M22,15C22,16.11 21.1,17 20,17H16V15H20V13H18V11H20V9H16V7H20A2,2 0 0,1 22,9V10.5A1.5,1.5 0 0,1 20.5,12A1.5,1.5 0 0,1 22,13.5V15M14,15V17H8V13C8,11.89 8.9,11 10,11H12V9H8V7H12A2,2 0 0,1 14,9V11C14,12.11 13.1,13 12,13H10V15H14Z" transform="scale(0.75) translate(4 4)"/></svg>