<svg xmlns="http://www.w3.org/2000/svg" xmlns:xlink="http://www.w3.org/1999/xlink" width="16" height="16" version="1.1" viewBox="0 0 24 24"><path fill="#80CBC4" d="M5.5,7A1.5,1.5 0 0,1 4,5.5A1.5,1.5 0 0,1 5.5,4A1.5,1.5 0 0,1 7,5.5A1.5,1.5 0 0,1 5.5,7M21.41,11.58L12.41,2.58C12.05,2.22 11.55,2 11,2H4C2.89,2 2,2.89 2,4V11C2,11.55 2.22,12.05 2.59,12.41L11.58,21.41C11.95,21.77 12.45,22 13,22C13.55,22 14.05,21.77 14.41,21.41L21.41,14.41C21.78,14.05 22,13.55 22,13C22,12.44 21.77,11.94 21.41,11.58Z" transform="scale(.75)"/><path fill="#FDD835" d="M7,14A2,2 0 0,1 5,12A2,2 0 0,1 7,10A2,2 0 0,1 9,12A2,2 0 0,1 7,14M12.65,10C11.83,7.67 9.61,6 7,6A6,6 0 0,0 1,12A6,6 0 0,0 7,18C9.61,18 11.83,16.33 12.65,14H17V18H21V14H23V10H12.65Z" transform="scale(.75) translate(8 8)"/></svg>